#!OML:ASF H:\Dans Jumps\Project 1\Capture day 1\Session 1\subject.ASF
:FULLY-SPECIFIED
:DEGREES
271
root 0.435923 16.7501 -3.4324 8.49621 -8.22649 -0.168031
lowerback 8.40121 -1.49851 -1.22897
upperback 5.65058 -2.0859 2.22358
thorax 1.27405 -1.12402 3.13375
lowerneck -11.5011 2.5209 -0.0122472
upperneck 32.7403 4.20272 -2.08994
head 12.8628 1.53281 -0.222276
rclavicle 1.98785e-015 -7.15625e-015
rhumerus -22.2436 -25.1561 -75.5893
rradius 17.5939
rwrist 45
rhand -24.1512 -27.0557
rfingers 7.12502
rthumb 2.33134 -57.0227
lclavicle 1.98785e-015 -7.15625e-015
lhumerus -0.291866 5.32734 86.5763
lradius 18.5492
lwrist 12.3328
lhand -30.4514 -10.1754
lfingers 7.12502
lthumb -3.75342 19.7713
rfemur -36.005 0.206668 19.069
rtibia 49.0936
rfoot -19.3299 -5.11901
rtoes 4.24446
lfemur -34.3929 9.56661 -18.9555
ltibia 45.5659
lfoot -17.7148 3.36862
ltoes -2.15747
272
root 0.430179 16.757 -3.41505 8.52531 -8.11197 -0.15244
lowerback 8.37068 -1.50825 -1.28366
upperback 5.64519 -2.10203 2.2321
thorax 1.28881 -1.13376 3.17355
lowerneck -11.5362 2.50581 0.00302155
upperneck 32.6772 4.17285 -2.07831
head 12.8432 1.52416 -0.224111
rclavicle -6.16232e-015 -6.75868e-015
rhumerus -22.4786 -25.2251 -75.489
rradius 17.5864
rwrist 45.036
rhand -24.1639 -27.0548
rfingers 7.12502
rthumb 2.31907 -57.0219
lclavicle -6.16232e-015 -6.75868e-015
lhumerus -0.322788 4.72489 86.7649
lradius 18.8524
lwrist 12.7758
lhand -30.4771 -10.237
lfingers 7.12502
lthumb -3.77817 19.7093
rfemur -35.8984 0.291701 19.0506
rtibia 49.0018
rfoot -19.3832 -5.2839
rtoes 4.04683
lfemur -34.3061 9.5003 -18.9618
ltibia 45.4425
lfoot -17.7009 3.36081
ltoes -2.16002
273
root 0.424492 16.7636 -3.39711 8.53839 -8.0003 -0.142181
lowerback 8.34271 -1.51198 -1.3283
upperback 5.64535 -2.1096 2.2363
thorax 1.30683 -1.13897 3.20263
lowerneck -11.5791 2.48925 0.0273033
upperneck 32.6286 4.14154 -2.07343
head 12.8318 1.5148 -0.230192
rclavicle 2.54444e-014 9.54166e-015
rhumerus -22.6876 -25.2368 -75.4329
rradius 17.5879
rwrist 45.0455
rhand -24.1782 -27.0483
rfingers 7.12502
rthumb 2.30521 -57.0156
lclavicle 2.54444e-014 9.54166e-015
lhumerus -0.355995 4.13972 86.9559
lradius 19.118
lwrist 13.1324
lhand -30.5281 -10.331
lfingers 7.12502
lthumb -3.82746 19.6144
rfemur -35.7726 0.36955 19.0377
rtibia 48.9148
rfoot -19.4346 -5.42194
rtoes 3.95353
lfemur -34.2028 9.44597 -18.9611
ltibia 45.3276
lfoot -17.6985 3.35259
ltoes -2.1798
274
root 0.418935 16.7696 -3.37925 8.55263 -7.86961 -0.140289
lowerback 8.30504 -1.51991 -1.35549
upperback 5.64611 -2.12156 2.23905
thorax 1.33034 -1.14594 3.22032
lowerneck -11.6273 2.47392 0.0606019
upperneck 32.5937 4.11226 -2.0746
head 12.8277 1.50636 -0.239812
rclavicle -2.3059e-014 2.14687e-014
rhumerus -22.8715 -25.2189 -75.4096
rradius 17.5805
rwrist 45.1004
rhand -24.2324 -27.0156
rfingers 7.12502
rthumb 2.25288 -56.9835
lclavicle -2.3059e-014 2.14687e-014
lhumerus -0.383996 3.59178 87.1471
lradius 19.3426
lwrist 13.4198
lhand -30.5678 -10.4245
lfingers 7.12502
lthumb -3.8658 19.5202
rfemur -35.6478 0.415137 19.0374
rtibia 48.8334
rfoot -19.4856 -5.53838
rtoes 3.94915
lfemur -34.1103 9.38558 -18.9518
ltibia 45.2244
lfoot -17.7011 3.33906
ltoes -2.22474
275
root 0.413697 16.775 -3.36154 8.57233 -7.72317 -0.147047
lowerback 8.25633 -1.53191 -1.365
upperback 5.64416 -2.13768 2.24109
thorax 1.35664 -1.15446 3.22725
lowerneck -11.6754 2.45981 0.099004
upperneck 32.5734 4.08522 -2.07986
head 12.8301 1.49873 -0.251586
rclavicle -1.0138e-014 -8.74653e-015
rhumerus -23.0299 -25.1702 -75.4172
rradius 17.5634
rwrist 45.1884
rhand -24.3179 -26.9467
rfingers 7.12502
rthumb 2.17029 -56.9154
lclavicle -1.0138e-014 -8.74653e-015
lhumerus -0.411635 3.10167 87.3386
lradius 19.5312
lwrist 13.6167
lhand -30.5863 -10.4852
lfingers 7.12502
lthumb -3.88367 19.4592
rfemur -35.5302 0.422084 19.0504
rtibia 48.7566
rfoot -19.542 -5.62917
rtoes 3.99854
lfemur -34.0335 9.31821 -18.9346
ltibia 45.1334
lfoot -17.7058 3.31886
ltoes -2.27324
276
root 0.408892 16.7797 -3.34406 8.60048 -7.54983 -0.161851
lowerback 8.19384 -1.55607 -1.3566
upperback 5.63589 -2.16864 2.24642
thorax 1.38434 -1.16988 3.22808
lowerneck -11.7114 2.45051 0.130362
upperneck 32.5641 4.06735 -2.08619
head 12.8345 1.49404 -0.261431
rclavicle -4.53229e-014 1.98785e-015
rhumerus -23.1684 -25.1184 -75.4365
rradius 17.5274
rwrist 45.3446
rhand -24.4359 -26.8498
rfingers 7.12502
rthumb 2.05634 -56.8196
lclavicle -4.53229e-014 1.98785e-015
lhumerus -0.450348 2.68346 87.5337
lradius 19.6885
lwrist 13.7336
lhand -30.5962 -10.5287
lfingers 7.12502
lthumb -3.89321 19.4155
rfemur -35.4214 0.377593 19.0782
rtibia 48.6835
rfoot -19.6028 -5.70409
rtoes 4.053
lfemur -33.9775 9.23294 -18.9092
ltibia 45.0548
lfoot -17.713 3.28665
ltoes -2.32028
